<svg width="794" height="234" viewBox="0 0 794 234" fill="none" xmlns="http://www.w3.org/2000/svg">
<rect x="356.918" y="0.819824" width="91.4282" height="205.586" fill="url(#paint0_linear_113_1891)"/>
<path d="M402.633 202.656L366.422 187.549V121.21L402.633 106.103L438.843 121.21V187.549L402.633 202.656Z" fill="url(#paint1_linear_113_1891)"/>
<path d="M366.422 121.634L402.714 136.585M402.714 136.585L438.791 121.634M402.714 136.585V233.048M402.714 136.585V73.7694" stroke="white" stroke-opacity="0.5"/>
<path d="M125.8 117.158L162.091 132.109M125.8 117.158L162.091 100.701M125.8 117.158V186.83M162.091 132.109L198.168 117.158M162.091 132.109V100.701M162.091 132.109V170.193M198.168 117.158L162.091 100.701M198.168 117.158V186.83M162.091 228.572V202.727M162.091 76.2895V100.701M198.168 186.83L162.091 202.727M198.168 186.83L162.091 170.193M162.091 202.727L125.8 186.83M162.091 202.727V170.193M125.8 186.83L162.091 170.193" stroke="black" stroke-opacity="0.5"/>
<path d="M489.092 144.922L525.383 159.873M489.092 144.922L525.383 128.465M489.092 144.922V186.83M525.383 159.873L561.46 144.922M525.383 159.873V128.465M525.383 159.873V170.193M561.46 144.922L525.383 128.465M561.46 144.922V186.83M525.383 228.572V202.727M525.383 104.053V128.465M561.46 186.83L525.383 202.727M561.46 186.83L525.383 170.193M525.383 202.727L489.092 186.83M525.383 202.727V170.193M489.092 186.83L525.383 170.193" stroke="black" stroke-opacity="0.5"/>
<path d="M720.211 112.161L756.502 127.112M720.211 112.161L756.502 95.7041M720.211 112.161V186.83M756.502 127.112L792.579 112.161M756.502 127.112V95.7041M756.502 127.112V170.193M792.579 112.161L756.502 95.7041M792.579 112.161V186.83M756.502 228.572V202.727M756.502 71.2923V95.7041M792.579 186.83L756.502 202.727M792.579 186.83L756.502 170.193M756.502 202.727L720.211 186.83M756.502 202.727V170.193M720.211 186.83L756.502 170.193" stroke="black" stroke-opacity="0.5"/>
<path d="M602.205 56.0279L638.497 70.9787M602.205 56.0279L638.497 39.571M602.205 56.0279V186.39M638.497 70.9787L674.573 56.0279M638.497 70.9787V39.571M638.497 70.9787V169.753M674.573 56.0279L638.497 39.571M674.573 56.0279V186.39M638.497 228.132V202.287M638.497 15.1592V39.571M674.573 186.39L638.497 202.287M674.573 186.39L638.497 169.753M638.497 202.287L602.205 186.39M638.497 202.287V169.753M602.205 186.39L638.497 169.753" stroke="black" stroke-opacity="0.5"/>
<path d="M243.806 88.7265L280.097 103.677M243.806 88.7265L280.097 72.2695M243.806 88.7265V186.83M280.097 103.677L316.174 88.7265M280.097 103.677V72.2695M280.097 103.677V170.193M316.174 88.7265L280.097 72.2695M316.174 88.7265V186.83M280.097 228.572V202.727M280.097 47.8577V72.2695M316.174 186.83L280.097 202.727M316.174 186.83L280.097 170.193M280.097 202.727L243.806 186.83M280.097 202.727V170.193M243.806 186.83L280.097 170.193" stroke="black" stroke-opacity="0.5"/>
<rect x="0.359375" y="52.2168" width="91.4282" height="155.411" fill="url(#paint2_linear_113_1891)"/>
<path d="M46.0732 204.035L9.86279 188.928V146.95L46.0732 131.843L82.2837 146.95V188.928L46.0732 204.035Z" fill="url(#paint3_linear_113_1891)"/>
<path d="M9.86328 147.066L46.1547 162.017M46.1547 162.017L82.2316 147.066M46.1547 162.017V228.572M46.1547 162.017V110.238" stroke="white" stroke-opacity="0.5"/>
<defs>
<linearGradient id="paint0_linear_113_1891" x1="402.633" y1="0.819824" x2="402.633" y2="206.406" gradientUnits="userSpaceOnUse">
<stop stop-color="#D6C7FF" stop-opacity="0"/>
<stop offset="0.515" stop-color="#F0D2E4" stop-opacity="0.5"/>
<stop offset="1" stop-color="#4C9BE5" stop-opacity="0"/>
</linearGradient>
<linearGradient id="paint1_linear_113_1891" x1="402.633" y1="134.842" x2="402.633" y2="202.656" gradientUnits="userSpaceOnUse">
<stop stop-color="#D6C7FF"/>
<stop offset="0.5" stop-color="#7FABF0"/>
<stop offset="1" stop-color="#2C91DF"/>
</linearGradient>
<linearGradient id="paint2_linear_113_1891" x1="46.0735" y1="52.2168" x2="46.0735" y2="207.628" gradientUnits="userSpaceOnUse">
<stop stop-color="#FFD1C7" stop-opacity="0"/>
<stop offset="0.515" stop-color="#F0DFD2" stop-opacity="0.5"/>
<stop offset="1" stop-color="#EDD2C3" stop-opacity="0"/>
</linearGradient>
<linearGradient id="paint3_linear_113_1891" x1="46.0732" y1="136.221" x2="46.0732" y2="204.035" gradientUnits="userSpaceOnUse">
<stop stop-color="#FE7250"/>
<stop offset="0.5" stop-color="#FC956D"/>
<stop offset="1" stop-color="#FAB382"/>
</linearGradient>
</defs>
</svg>
